<mxfile host="app.diagrams.net" agent="Mozilla/5.0 (Windows NT 10.0; Win64; x64) AppleWebKit/537.36 (KHTML, like Gecko) Chrome/131.0.0.0 Safari/537.36" version="25.0.3">
  <diagram id="C5RBs43oDa-KdzZeNtuy" name="Page-1">
    <mxGraphModel dx="1050" dy="557" grid="1" gridSize="10" guides="1" tooltips="1" connect="1" arrows="1" fold="1" page="1" pageScale="1" pageWidth="827" pageHeight="1169" background="none" math="0" shadow="0">
      <root>
        <mxCell id="WIyWlLk6GJQsqaUBKTNV-0" />
        <mxCell id="WIyWlLk6GJQsqaUBKTNV-1" parent="WIyWlLk6GJQsqaUBKTNV-0" />
        <mxCell id="_i2AxKCINSiEmEG1xEMQ-2" value="" style="edgeStyle=orthogonalEdgeStyle;rounded=0;orthogonalLoop=1;jettySize=auto;html=1;" edge="1" parent="WIyWlLk6GJQsqaUBKTNV-1" source="_i2AxKCINSiEmEG1xEMQ-0" target="_i2AxKCINSiEmEG1xEMQ-1">
          <mxGeometry relative="1" as="geometry" />
        </mxCell>
        <mxCell id="_i2AxKCINSiEmEG1xEMQ-0" value="Inicio" style="ellipse;whiteSpace=wrap;html=1;aspect=fixed;" vertex="1" parent="WIyWlLk6GJQsqaUBKTNV-1">
          <mxGeometry x="120" y="30" width="80" height="80" as="geometry" />
        </mxCell>
        <mxCell id="_i2AxKCINSiEmEG1xEMQ-4" value="" style="edgeStyle=orthogonalEdgeStyle;rounded=0;orthogonalLoop=1;jettySize=auto;html=1;" edge="1" parent="WIyWlLk6GJQsqaUBKTNV-1" source="_i2AxKCINSiEmEG1xEMQ-1" target="_i2AxKCINSiEmEG1xEMQ-3">
          <mxGeometry relative="1" as="geometry" />
        </mxCell>
        <mxCell id="_i2AxKCINSiEmEG1xEMQ-1" value="&lt;div&gt;&amp;nbsp; &amp;nbsp; Mostrar mensaje: &quot;Por favor ingrese una palabra: &quot;&lt;/div&gt;&lt;div&gt;&lt;br&gt;&lt;/div&gt;" style="shape=parallelogram;perimeter=parallelogramPerimeter;whiteSpace=wrap;html=1;fixedSize=1;" vertex="1" parent="WIyWlLk6GJQsqaUBKTNV-1">
          <mxGeometry x="240" y="30" width="200" height="80" as="geometry" />
        </mxCell>
        <mxCell id="_i2AxKCINSiEmEG1xEMQ-8" value="" style="edgeStyle=orthogonalEdgeStyle;rounded=0;orthogonalLoop=1;jettySize=auto;html=1;" edge="1" parent="WIyWlLk6GJQsqaUBKTNV-1" source="_i2AxKCINSiEmEG1xEMQ-3" target="_i2AxKCINSiEmEG1xEMQ-7">
          <mxGeometry relative="1" as="geometry" />
        </mxCell>
        <mxCell id="_i2AxKCINSiEmEG1xEMQ-3" value="Definir variable cantidad_letras y asignarle longitud de palabra_ingresada" style="rounded=1;whiteSpace=wrap;html=1;" vertex="1" parent="WIyWlLk6GJQsqaUBKTNV-1">
          <mxGeometry x="470" y="30" width="200" height="80" as="geometry" />
        </mxCell>
        <mxCell id="_i2AxKCINSiEmEG1xEMQ-10" value="" style="edgeStyle=orthogonalEdgeStyle;rounded=0;orthogonalLoop=1;jettySize=auto;html=1;" edge="1" parent="WIyWlLk6GJQsqaUBKTNV-1" source="_i2AxKCINSiEmEG1xEMQ-7" target="_i2AxKCINSiEmEG1xEMQ-9">
          <mxGeometry relative="1" as="geometry" />
        </mxCell>
        <mxCell id="_i2AxKCINSiEmEG1xEMQ-7" value="&lt;div&gt;&amp;nbsp; &amp;nbsp; Mostrar mensaje: &quot;La palabra ingresada tiene&quot;, cantidad_letras, &quot;letras&quot;&lt;/div&gt;&lt;div&gt;&lt;br&gt;&lt;/div&gt;" style="shape=parallelogram;perimeter=parallelogramPerimeter;whiteSpace=wrap;html=1;fixedSize=1;rounded=1;" vertex="1" parent="WIyWlLk6GJQsqaUBKTNV-1">
          <mxGeometry x="710" y="30" width="220" height="80" as="geometry" />
        </mxCell>
        <mxCell id="_i2AxKCINSiEmEG1xEMQ-9" value="Fin" style="ellipse;whiteSpace=wrap;html=1;rounded=1;" vertex="1" parent="WIyWlLk6GJQsqaUBKTNV-1">
          <mxGeometry x="980" y="30" width="80" height="80" as="geometry" />
        </mxCell>
      </root>
    </mxGraphModel>
  </diagram>
</mxfile>
